<?xml version="1.0" encoding="UTF-8"?> <svg xmlns="http://www.w3.org/2000/svg" width="780" height="440" viewBox="0 0 780 440"><title>landing-page-examples</title><path fill="#035e73" d="M0 0h780v440H0z"></path><path fill="#fff" d="M227 89h458v28H227z"></path><path fill="#17b8ce" d="M226.9 116.2h458v215h-458z"></path><path fill="#76e5e2" d="M266.9 170.2h178.5v12H266.9zM266.9 220.2h188.5v12H266.9zM266.9 195.2h201v12h-201z"></path><path fill="#fff" d="M266.9 256.2h80v23h-80z"></path><path fill="none" stroke="#17b8ce" stroke-miterlimit="10" stroke-width="4" d="M282.9 268.2h48"></path><path fill="#fff" d="M95.1 170.6h154v27.6h-154z"></path><circle cx="110" cy="184.6" r="8.4" fill="#76e5e2"></circle><path fill="#76e5e2" d="M124.7 180.5h63v7.5h-63zM95.1 197.6h154v147.2h-154z"></path><path fill="#17b8ce" d="M160.1 233.1l56.5 38.1-56.5 38.1v-76.2z"></path><path fill="#fff" d="M131.7 233.1l56.5 38.1-56.5 38.1v-76.2z"></path><path fill="#76e5e2" d="M568.4 168.8l79.2 53.4-79.2 53.5V168.8z"></path><path fill="#fff" d="M528.6 168.8l79.2 53.4-79.2 53.5V168.8z"></path><circle cx="240" cy="103" r="4" fill="#76e5e2"></circle><circle cx="252" cy="103" r="4" fill="#76e5e2"></circle><circle cx="264" cy="103" r="4" fill="#76e5e2"></circle></svg> 